<mxfile host="app.diagrams.net" modified="2023-10-09T10:24:50.856Z" agent="Mozilla/5.0 (Windows NT 10.0; Win64; x64) AppleWebKit/537.36 (KHTML, like Gecko) Chrome/117.0.0.0 Safari/537.36" etag="xh6-yDYOLS3o_hWHBLQI" version="22.0.4" type="github">
  <diagram name="第 1 页" id="CJJhauZ1sSAFdNGBMgmO">
    <mxGraphModel dx="3740" dy="1835" grid="1" gridSize="10" guides="1" tooltips="1" connect="1" arrows="1" fold="1" page="1" pageScale="1" pageWidth="827" pageHeight="1169" math="0" shadow="0">
      <root>
        <mxCell id="0" />
        <mxCell id="1" parent="0" />
        <mxCell id="zcyaIf9toeNR7-TaGVq1-33" value="订阅实例变更通知" style="rounded=1;whiteSpace=wrap;html=1;sketch=1;hachureGap=4;jiggle=2;curveFitting=1;fontFamily=Architects Daughter;fontSource=https%3A%2F%2Ffonts.googleapis.com%2Fcss%3Ffamily%3DArchitects%2BDaughter;fontSize=15;dashed=1;align=left;glass=1;labelBackgroundColor=none;fillColor=#FAD9D5;strokeColor=#D0CEE2;fontColor=#1A1A1A;fillStyle=auto;labelPosition=center;verticalLabelPosition=top;verticalAlign=bottom;" vertex="1" parent="1">
          <mxGeometry x="-1715" y="-520" width="485" height="180" as="geometry" />
        </mxCell>
        <mxCell id="zcyaIf9toeNR7-TaGVq1-6" value="创建NamingService对象" style="text;html=1;align=center;verticalAlign=middle;resizable=0;points=[];autosize=1;strokeColor=none;fillColor=none;fontSize=20;fontFamily=Architects Daughter;labelBackgroundColor=none;fontColor=#1A1A1A;" vertex="1" parent="1">
          <mxGeometry x="-1650" y="-1090" width="240" height="40" as="geometry" />
        </mxCell>
        <mxCell id="zcyaIf9toeNR7-TaGVq1-8" value="服务注册与发现" style="shape=parallelogram;perimeter=parallelogramPerimeter;whiteSpace=wrap;html=1;fixedSize=1;sketch=1;hachureGap=4;jiggle=2;curveFitting=1;fontFamily=Architects Daughter;fontSource=https%3A%2F%2Ffonts.googleapis.com%2Fcss%3Ffamily%3DArchitects%2BDaughter;fontSize=20;fillColor=#FAD9D5;strokeColor=#D0CEE2;labelBackgroundColor=none;fontColor=#1A1A1A;" vertex="1" parent="1">
          <mxGeometry x="-1640" y="-1150" width="190" height="30" as="geometry" />
        </mxCell>
        <mxCell id="zcyaIf9toeNR7-TaGVq1-17" style="edgeStyle=orthogonalEdgeStyle;rounded=0;sketch=1;hachureGap=4;jiggle=2;curveFitting=1;orthogonalLoop=1;jettySize=auto;html=1;exitX=0.5;exitY=1;exitDx=0;exitDy=0;entryX=0.5;entryY=0;entryDx=0;entryDy=0;fontFamily=Architects Daughter;fontSource=https%3A%2F%2Ffonts.googleapis.com%2Fcss%3Ffamily%3DArchitects%2BDaughter;fontSize=14;labelBackgroundColor=none;strokeColor=#09555B;fontColor=default;" edge="1" parent="1" source="zcyaIf9toeNR7-TaGVq1-10" target="zcyaIf9toeNR7-TaGVq1-15">
          <mxGeometry relative="1" as="geometry" />
        </mxCell>
        <mxCell id="zcyaIf9toeNR7-TaGVq1-10" value="NamingFactory.createNamingService" style="rounded=1;whiteSpace=wrap;html=1;sketch=1;hachureGap=4;jiggle=2;curveFitting=1;fontFamily=Architects Daughter;fontSource=https%3A%2F%2Ffonts.googleapis.com%2Fcss%3Ffamily%3DArchitects%2BDaughter;fontSize=14;labelBackgroundColor=none;fillColor=#FAD9D5;strokeColor=#D0CEE2;fontColor=#1A1A1A;" vertex="1" parent="1">
          <mxGeometry x="-1640" y="-1030" width="340" height="35" as="geometry" />
        </mxCell>
        <mxCell id="zcyaIf9toeNR7-TaGVq1-11" value="通过NamingFacotry工厂类创建NamingService对象" style="text;html=1;strokeColor=none;fillColor=none;align=center;verticalAlign=middle;whiteSpace=wrap;rounded=0;fontSize=20;fontFamily=Architects Daughter;labelBackgroundColor=none;fontColor=#1A1A1A;" vertex="1" parent="1">
          <mxGeometry x="-1340" y="-1092.5" width="460" height="45" as="geometry" />
        </mxCell>
        <mxCell id="zcyaIf9toeNR7-TaGVq1-12" value="" style="shape=flexArrow;endArrow=classic;html=1;rounded=0;sketch=1;hachureGap=4;jiggle=2;curveFitting=1;fontFamily=Architects Daughter;fontSource=https%3A%2F%2Ffonts.googleapis.com%2Fcss%3Ffamily%3DArchitects%2BDaughter;fontSize=16;labelBackgroundColor=none;strokeColor=#09555B;fontColor=default;" edge="1" parent="1">
          <mxGeometry width="50" height="50" relative="1" as="geometry">
            <mxPoint x="-1410" y="-1070.5" as="sourcePoint" />
            <mxPoint x="-1340" y="-1070.5" as="targetPoint" />
          </mxGeometry>
        </mxCell>
        <mxCell id="zcyaIf9toeNR7-TaGVq1-18" style="edgeStyle=orthogonalEdgeStyle;rounded=0;sketch=1;hachureGap=4;jiggle=2;curveFitting=1;orthogonalLoop=1;jettySize=auto;html=1;exitX=0.5;exitY=1;exitDx=0;exitDy=0;fontFamily=Architects Daughter;fontSource=https%3A%2F%2Ffonts.googleapis.com%2Fcss%3Ffamily%3DArchitects%2BDaughter;fontSize=14;labelBackgroundColor=none;strokeColor=#09555B;fontColor=default;" edge="1" parent="1" source="zcyaIf9toeNR7-TaGVq1-15" target="zcyaIf9toeNR7-TaGVq1-19">
          <mxGeometry relative="1" as="geometry">
            <mxPoint x="-1470" y="-860" as="targetPoint" />
          </mxGeometry>
        </mxCell>
        <mxCell id="zcyaIf9toeNR7-TaGVq1-15" value="通过反射创建&lt;br style=&quot;font-size: 14px;&quot;&gt;NacosNamingService对象" style="rounded=0;whiteSpace=wrap;html=1;sketch=1;hachureGap=4;jiggle=2;curveFitting=1;fontFamily=Architects Daughter;fontSource=https%3A%2F%2Ffonts.googleapis.com%2Fcss%3Ffamily%3DArchitects%2BDaughter;fontSize=14;labelBackgroundColor=none;fillColor=#FAD9D5;strokeColor=#D0CEE2;fontColor=#1A1A1A;" vertex="1" parent="1">
          <mxGeometry x="-1610" y="-950" width="280" height="50" as="geometry" />
        </mxCell>
        <mxCell id="zcyaIf9toeNR7-TaGVq1-21" style="edgeStyle=orthogonalEdgeStyle;rounded=0;sketch=1;hachureGap=4;jiggle=2;curveFitting=1;orthogonalLoop=1;jettySize=auto;html=1;exitX=0.5;exitY=1;exitDx=0;exitDy=0;fontFamily=Architects Daughter;fontSource=https%3A%2F%2Ffonts.googleapis.com%2Fcss%3Ffamily%3DArchitects%2BDaughter;fontSize=16;labelBackgroundColor=none;strokeColor=#09555B;fontColor=default;" edge="1" parent="1" source="zcyaIf9toeNR7-TaGVq1-19" target="zcyaIf9toeNR7-TaGVq1-22">
          <mxGeometry relative="1" as="geometry">
            <mxPoint x="-1470" y="-780" as="targetPoint" />
          </mxGeometry>
        </mxCell>
        <mxCell id="zcyaIf9toeNR7-TaGVq1-19" value="构造方法中调用init(properties);" style="rounded=0;whiteSpace=wrap;html=1;sketch=1;hachureGap=4;jiggle=2;curveFitting=1;fontFamily=Architects Daughter;fontSource=https%3A%2F%2Ffonts.googleapis.com%2Fcss%3Ffamily%3DArchitects%2BDaughter;fontSize=14;labelBackgroundColor=none;fillColor=#FAD9D5;strokeColor=#D0CEE2;fontColor=#1A1A1A;" vertex="1" parent="1">
          <mxGeometry x="-1585" y="-860" width="230" height="40" as="geometry" />
        </mxCell>
        <mxCell id="zcyaIf9toeNR7-TaGVq1-23" style="edgeStyle=orthogonalEdgeStyle;rounded=0;sketch=1;hachureGap=4;jiggle=2;curveFitting=1;orthogonalLoop=1;jettySize=auto;html=1;exitX=0.5;exitY=1;exitDx=0;exitDy=0;fontFamily=Architects Daughter;fontSource=https%3A%2F%2Ffonts.googleapis.com%2Fcss%3Ffamily%3DArchitects%2BDaughter;fontSize=16;labelBackgroundColor=none;strokeColor=#09555B;fontColor=default;" edge="1" parent="1" source="zcyaIf9toeNR7-TaGVq1-22" target="zcyaIf9toeNR7-TaGVq1-24">
          <mxGeometry relative="1" as="geometry">
            <mxPoint x="-1470" y="-710" as="targetPoint" />
          </mxGeometry>
        </mxCell>
        <mxCell id="zcyaIf9toeNR7-TaGVq1-22" value="&lt;font style=&quot;font-size: 11px;&quot;&gt;从 properties中获取的、从Jvm参数获取的和从System环境变了中获取的参数NacosClientProperties.PROTOTYPE.derive(properties)&lt;/font&gt;" style="rounded=0;whiteSpace=wrap;html=1;sketch=1;hachureGap=4;jiggle=2;curveFitting=1;fontFamily=Architects Daughter;fontSource=https%3A%2F%2Ffonts.googleapis.com%2Fcss%3Ffamily%3DArchitects%2BDaughter;fontSize=11;labelBackgroundColor=none;fillColor=#FAD9D5;strokeColor=#D0CEE2;fontColor=#1A1A1A;" vertex="1" parent="1">
          <mxGeometry x="-1677.5" y="-790" width="415" height="50" as="geometry" />
        </mxCell>
        <mxCell id="zcyaIf9toeNR7-TaGVq1-26" style="edgeStyle=orthogonalEdgeStyle;rounded=0;sketch=1;hachureGap=4;jiggle=2;curveFitting=1;orthogonalLoop=1;jettySize=auto;html=1;exitX=0.5;exitY=1;exitDx=0;exitDy=0;fontFamily=Architects Daughter;fontSource=https%3A%2F%2Ffonts.googleapis.com%2Fcss%3Ffamily%3DArchitects%2BDaughter;fontSize=16;labelBackgroundColor=none;strokeColor=#09555B;fontColor=default;" edge="1" parent="1" source="zcyaIf9toeNR7-TaGVq1-24" target="zcyaIf9toeNR7-TaGVq1-29">
          <mxGeometry relative="1" as="geometry">
            <mxPoint x="-1470" y="-640" as="targetPoint" />
          </mxGeometry>
        </mxCell>
        <mxCell id="zcyaIf9toeNR7-TaGVq1-24" value="创建实例变更通知器InstancesChangeNotifier&lt;br&gt;new InstancesChangeNotifier(this.notifierEventScope)" style="rounded=0;whiteSpace=wrap;html=1;sketch=1;hachureGap=4;jiggle=2;curveFitting=1;fontFamily=Architects Daughter;fontSource=https%3A%2F%2Ffonts.googleapis.com%2Fcss%3Ffamily%3DArchitects%2BDaughter;fontSize=13;labelBackgroundColor=none;fillColor=#FAD9D5;strokeColor=#D0CEE2;fontColor=#1A1A1A;" vertex="1" parent="1">
          <mxGeometry x="-1646.25" y="-710" width="352.5" height="40" as="geometry" />
        </mxCell>
        <mxCell id="zcyaIf9toeNR7-TaGVq1-25" value="" style="endArrow=none;dashed=1;html=1;dashPattern=1 3;strokeWidth=2;rounded=0;hachureGap=4;fontFamily=Architects Daughter;fontSource=https%3A%2F%2Ffonts.googleapis.com%2Fcss%3Ffamily%3DArchitects%2BDaughter;fontSize=16;shadow=0;labelBackgroundColor=none;strokeColor=#09555B;fontColor=default;" edge="1" parent="1">
          <mxGeometry width="50" height="50" relative="1" as="geometry">
            <mxPoint x="-828" y="-550" as="sourcePoint" />
            <mxPoint x="-828" y="-1150" as="targetPoint" />
          </mxGeometry>
        </mxCell>
        <mxCell id="zcyaIf9toeNR7-TaGVq1-32" value="" style="edgeStyle=orthogonalEdgeStyle;rounded=0;sketch=1;hachureGap=4;jiggle=2;curveFitting=1;orthogonalLoop=1;jettySize=auto;html=1;fontFamily=Architects Daughter;fontSource=https%3A%2F%2Ffonts.googleapis.com%2Fcss%3Ffamily%3DArchitects%2BDaughter;fontSize=16;labelBackgroundColor=none;strokeColor=#09555B;fontColor=default;" edge="1" parent="1" source="zcyaIf9toeNR7-TaGVq1-29">
          <mxGeometry relative="1" as="geometry">
            <mxPoint x="-1470" y="-500" as="targetPoint" />
          </mxGeometry>
        </mxCell>
        <mxCell id="zcyaIf9toeNR7-TaGVq1-29" value="创建NamingEventPublisher，并添加到内存中NotifyCenter.registerToPublisher(InstancesChangeEvent.class, 16384);" style="rounded=0;whiteSpace=wrap;html=1;sketch=1;hachureGap=4;jiggle=2;curveFitting=1;fontFamily=Architects Daughter;fontSource=https%3A%2F%2Ffonts.googleapis.com%2Fcss%3Ffamily%3DArchitects%2BDaughter;fontSize=14;labelBackgroundColor=none;fillColor=#FAD9D5;strokeColor=#D0CEE2;fontColor=#1A1A1A;" vertex="1" parent="1">
          <mxGeometry x="-1680" y="-640" width="420" height="50" as="geometry" />
        </mxCell>
        <mxCell id="zcyaIf9toeNR7-TaGVq1-35" value="" style="edgeStyle=orthogonalEdgeStyle;rounded=0;sketch=1;hachureGap=4;jiggle=2;curveFitting=1;orthogonalLoop=1;jettySize=auto;html=1;fontFamily=Architects Daughter;fontSource=https%3A%2F%2Ffonts.googleapis.com%2Fcss%3Ffamily%3DArchitects%2BDaughter;fontSize=16;labelBackgroundColor=none;strokeColor=#09555B;fontColor=default;" edge="1" parent="1" source="zcyaIf9toeNR7-TaGVq1-31" target="zcyaIf9toeNR7-TaGVq1-34">
          <mxGeometry relative="1" as="geometry" />
        </mxCell>
        <mxCell id="zcyaIf9toeNR7-TaGVq1-31" value="&lt;span style=&quot;font-size: 13px;&quot;&gt;InstancesChangeNotifier注册到&lt;/span&gt;NamingEventPublisher中NotifyCenter.registerSubscriber(changeNotifier)" style="rounded=0;whiteSpace=wrap;html=1;sketch=1;hachureGap=4;jiggle=2;curveFitting=1;fontFamily=Architects Daughter;fontSource=https%3A%2F%2Ffonts.googleapis.com%2Fcss%3Ffamily%3DArchitects%2BDaughter;fontSize=14;labelBackgroundColor=none;fillColor=#FAD9D5;strokeColor=#D0CEE2;fontColor=#1A1A1A;" vertex="1" parent="1">
          <mxGeometry x="-1680" y="-500" width="420" height="50" as="geometry" />
        </mxCell>
        <mxCell id="zcyaIf9toeNR7-TaGVq1-38" value="" style="edgeStyle=orthogonalEdgeStyle;rounded=0;sketch=1;hachureGap=4;jiggle=2;curveFitting=1;orthogonalLoop=1;jettySize=auto;html=1;strokeColor=#09555B;fontFamily=Architects Daughter;fontSource=https%3A%2F%2Ffonts.googleapis.com%2Fcss%3Ffamily%3DArchitects%2BDaughter;fontSize=16;fontColor=#1A1A1A;" edge="1" parent="1" source="zcyaIf9toeNR7-TaGVq1-34" target="zcyaIf9toeNR7-TaGVq1-37">
          <mxGeometry relative="1" as="geometry" />
        </mxCell>
        <mxCell id="zcyaIf9toeNR7-TaGVq1-34" value="publisher.addSubscriber(changeNotifier);" style="rounded=0;whiteSpace=wrap;html=1;sketch=1;hachureGap=4;jiggle=2;curveFitting=1;fontFamily=Architects Daughter;fontSource=https%3A%2F%2Ffonts.googleapis.com%2Fcss%3Ffamily%3DArchitects%2BDaughter;fontSize=14;labelBackgroundColor=none;fillColor=#FAD9D5;strokeColor=#D0CEE2;fontColor=#1A1A1A;" vertex="1" parent="1">
          <mxGeometry x="-1617.5" y="-400" width="295" height="30" as="geometry" />
        </mxCell>
        <mxCell id="zcyaIf9toeNR7-TaGVq1-42" value="" style="edgeStyle=orthogonalEdgeStyle;rounded=0;sketch=1;hachureGap=4;jiggle=2;curveFitting=1;orthogonalLoop=1;jettySize=auto;html=1;strokeColor=#09555B;fontFamily=Architects Daughter;fontSource=https%3A%2F%2Ffonts.googleapis.com%2Fcss%3Ffamily%3DArchitects%2BDaughter;fontSize=16;fontColor=#1A1A1A;" edge="1" parent="1" source="zcyaIf9toeNR7-TaGVq1-37" target="zcyaIf9toeNR7-TaGVq1-41">
          <mxGeometry relative="1" as="geometry" />
        </mxCell>
        <mxCell id="zcyaIf9toeNR7-TaGVq1-37" value="服务信息收集&lt;br&gt;new ServiceInfoHolder(namespace, this.notifierEventScope, nacosClientProperties);" style="rounded=0;whiteSpace=wrap;html=1;sketch=1;hachureGap=4;jiggle=2;curveFitting=1;fontFamily=Architects Daughter;fontSource=https%3A%2F%2Ffonts.googleapis.com%2Fcss%3Ffamily%3DArchitects%2BDaughter;fontSize=14;labelBackgroundColor=none;fillColor=#FAD9D5;strokeColor=#D0CEE2;fontColor=#1A1A1A;" vertex="1" parent="1">
          <mxGeometry x="-1668.75" y="-300" width="397.5" height="60" as="geometry" />
        </mxCell>
        <mxCell id="zcyaIf9toeNR7-TaGVq1-39" value="这里会在服务器本地&lt;br&gt;创建服务信息缓存" style="ellipse;shape=cloud;whiteSpace=wrap;html=1;sketch=1;hachureGap=4;jiggle=2;curveFitting=1;strokeColor=#D0CEE2;fontFamily=Architects Daughter;fontSource=https%3A%2F%2Ffonts.googleapis.com%2Fcss%3Ffamily%3DArchitects%2BDaughter;fontSize=14;fontColor=#1A1A1A;fillColor=#FAD9D5;" vertex="1" parent="1">
          <mxGeometry x="-1960" y="-380" width="200" height="90" as="geometry" />
        </mxCell>
        <mxCell id="zcyaIf9toeNR7-TaGVq1-40" value="" style="endArrow=classic;html=1;sketch=1;hachureGap=4;jiggle=2;curveFitting=1;strokeColor=#09555B;fontFamily=Architects Daughter;fontSource=https%3A%2F%2Ffonts.googleapis.com%2Fcss%3Ffamily%3DArchitects%2BDaughter;fontSize=16;fontColor=#1A1A1A;entryX=0;entryY=0.5;entryDx=0;entryDy=0;exitX=0.96;exitY=0.7;exitDx=0;exitDy=0;exitPerimeter=0;curved=1;edgeStyle=orthogonalEdgeStyle;" edge="1" parent="1" source="zcyaIf9toeNR7-TaGVq1-39" target="zcyaIf9toeNR7-TaGVq1-37">
          <mxGeometry width="50" height="50" relative="1" as="geometry">
            <mxPoint x="-1820" y="-330" as="sourcePoint" />
            <mxPoint x="-1780" y="-380" as="targetPoint" />
          </mxGeometry>
        </mxCell>
        <mxCell id="zcyaIf9toeNR7-TaGVq1-41" value="&lt;font face=&quot;宋体, monospace&quot; style=&quot;font-size: 14px;&quot;&gt;创建客户端代理对象&lt;br style=&quot;font-size: 14px;&quot;&gt;&lt;div style=&quot;font-size: 14px;&quot;&gt;&amp;nbsp;new NamingClientProxyDelegate(this.namespace, serviceInfoHolder, nacosClientProperties,&lt;/div&gt;&lt;div style=&quot;font-size: 14px;&quot;&gt;&lt;span style=&quot;font-size: 14px;&quot;&gt;&amp;nbsp; &amp;nbsp; &amp;nbsp; &amp;nbsp; &amp;nbsp; &amp;nbsp; &amp;nbsp; &amp;nbsp; changeNotifier);&lt;/span&gt;&lt;/div&gt;&lt;/font&gt;" style="rounded=0;whiteSpace=wrap;html=1;sketch=1;hachureGap=4;jiggle=2;curveFitting=1;fontFamily=Architects Daughter;fontSource=https%3A%2F%2Ffonts.googleapis.com%2Fcss%3Ffamily%3DArchitects%2BDaughter;fontSize=14;labelBackgroundColor=none;fillColor=#FAD9D5;strokeColor=#D0CEE2;fontColor=#1A1A1A;" vertex="1" parent="1">
          <mxGeometry x="-1655" y="-200" width="370" height="60" as="geometry" />
        </mxCell>
      </root>
    </mxGraphModel>
  </diagram>
</mxfile>
